<svg width="161" height="161" viewBox="0 0 161 161" fill="none" xmlns="http://www.w3.org/2000/svg">
<rect x="0.54248" y="0.638184" width="160" height="160" rx="80" fill="#f2f2f2"/>
<path d="M31.4757 103.91H31.8107C31.9374 103.91 32.0407 103.894 32.1207 103.86C32.2007 103.824 32.2724 103.767 32.3357 103.69L34.5157 101.09C34.5924 100.994 34.6707 100.927 34.7507 100.89C34.834 100.85 34.9374 100.83 35.0607 100.83H36.0607L33.4857 103.87C33.4157 103.957 33.3474 104.03 33.2807 104.09C33.2174 104.147 33.1474 104.194 33.0707 104.23C33.1707 104.267 33.2607 104.319 33.3407 104.385C33.4207 104.449 33.499 104.534 33.5757 104.64L36.2457 108.03H35.2257C35.1524 108.03 35.089 108.025 35.0357 108.015C34.9857 108.005 34.9407 107.99 34.9007 107.97C34.864 107.95 34.8307 107.925 34.8007 107.895C34.774 107.865 34.749 107.832 34.7257 107.795L32.4757 105.045C32.4424 105.002 32.409 104.965 32.3757 104.935C32.3424 104.905 32.3024 104.88 32.2557 104.86C32.2124 104.84 32.1624 104.827 32.1057 104.82C32.049 104.81 31.9824 104.805 31.9057 104.805H31.4757V108.03H30.3057V100.83H31.4757V103.91ZM52.4183 104.43C52.4183 104.964 52.3317 105.455 52.1583 105.905C51.985 106.355 51.74 106.744 51.4233 107.07C51.11 107.394 50.7317 107.647 50.2883 107.83C49.8483 108.014 49.3583 108.105 48.8183 108.105C48.2817 108.105 47.7917 108.014 47.3483 107.83C46.9083 107.647 46.53 107.394 46.2133 107.07C45.8967 106.744 45.6517 106.355 45.4783 105.905C45.305 105.455 45.2183 104.964 45.2183 104.43C45.2183 103.897 45.305 103.405 45.4783 102.955C45.6517 102.505 45.8967 102.117 46.2133 101.79C46.53 101.464 46.9083 101.209 47.3483 101.025C47.7917 100.842 48.2817 100.75 48.8183 100.75C49.3583 100.75 49.8483 100.842 50.2883 101.025C50.7317 101.209 51.11 101.464 51.4233 101.79C51.74 102.117 51.985 102.505 52.1583 102.955C52.3317 103.405 52.4183 103.897 52.4183 104.43ZM51.2233 104.43C51.2233 104.017 51.1667 103.645 51.0533 103.315C50.9433 102.985 50.7833 102.705 50.5733 102.475C50.3667 102.245 50.115 102.069 49.8183 101.945C49.5217 101.822 49.1883 101.76 48.8183 101.76C48.4517 101.76 48.12 101.822 47.8233 101.945C47.5267 102.069 47.2733 102.245 47.0633 102.475C46.8533 102.705 46.6917 102.985 46.5783 103.315C46.465 103.645 46.4083 104.017 46.4083 104.43C46.4083 104.847 46.465 105.22 46.5783 105.55C46.6917 105.88 46.8533 106.16 47.0633 106.39C47.2733 106.617 47.5267 106.792 47.8233 106.915C48.12 107.035 48.4517 107.095 48.8183 107.095C49.1883 107.095 49.5217 107.035 49.8183 106.915C50.115 106.792 50.3667 106.617 50.5733 106.39C50.7833 106.16 50.9433 105.88 51.0533 105.55C51.1667 105.22 51.2233 104.847 51.2233 104.43ZM70.3602 100.83V108.03H69.3302V103.095C69.3302 103.015 69.3319 102.929 69.3352 102.835C69.3419 102.739 69.3502 102.642 69.3602 102.545L67.0452 106.82C66.9552 106.997 66.8169 107.085 66.6302 107.085H66.4652C66.2752 107.085 66.1369 106.997 66.0502 106.82L63.7002 102.535C63.7102 102.632 63.7169 102.729 63.7202 102.825C63.7269 102.922 63.7302 103.012 63.7302 103.095V108.03H62.7002V100.83H63.5752C63.6785 100.83 63.7585 100.84 63.8152 100.86C63.8719 100.877 63.9235 100.932 63.9702 101.025L66.2802 105.21C66.3302 105.307 66.3769 105.407 66.4202 105.51C66.4669 105.61 66.5085 105.714 66.5452 105.82C66.5852 105.714 66.6269 105.609 66.6702 105.505C66.7169 105.399 66.7652 105.297 66.8152 105.2L69.0902 101.025C69.1369 100.932 69.1885 100.877 69.2452 100.86C69.3019 100.84 69.3819 100.83 69.4852 100.83H70.3602ZM85.5604 107.085L85.5554 108.03H81.0654V100.83H85.5554V101.775H82.2404V103.945H84.8904V104.86H82.2404V107.085H85.5604ZM97.9172 104.28C98.1838 104.28 98.4172 104.249 98.6172 104.185C98.8172 104.119 98.9838 104.027 99.1172 103.91C99.2505 103.794 99.3505 103.655 99.4172 103.495C99.4838 103.332 99.5172 103.152 99.5172 102.955C99.5172 102.562 99.3872 102.262 99.1272 102.055C98.8672 101.849 98.4738 101.745 97.9472 101.745H96.9972V104.28H97.9172ZM101.307 108.03H100.262C100.056 108.03 99.9055 107.95 99.8122 107.79L98.1322 105.365C98.0755 105.282 98.0138 105.222 97.9472 105.185C97.8805 105.149 97.7805 105.13 97.6472 105.13H96.9972V108.03H95.8272V100.83H97.9472C98.4205 100.83 98.8272 100.879 99.1672 100.975C99.5105 101.072 99.7922 101.21 100.012 101.39C100.232 101.567 100.394 101.78 100.497 102.03C100.604 102.28 100.657 102.559 100.657 102.865C100.657 103.115 100.619 103.349 100.542 103.565C100.469 103.782 100.361 103.979 100.217 104.155C100.077 104.332 99.9038 104.485 99.6972 104.615C99.4905 104.745 99.2555 104.847 98.9922 104.92C99.1355 105.007 99.2588 105.129 99.3622 105.285L101.307 108.03ZM116.087 106.425C116.15 106.425 116.205 106.45 116.252 106.5L116.717 107.005C116.424 107.359 116.064 107.632 115.637 107.825C115.21 108.015 114.7 108.11 114.107 108.11C113.58 108.11 113.104 108.02 112.677 107.84C112.254 107.657 111.892 107.404 111.592 107.08C111.292 106.754 111.06 106.365 110.897 105.915C110.737 105.465 110.657 104.97 110.657 104.43C110.657 103.89 110.742 103.395 110.912 102.945C111.085 102.492 111.327 102.104 111.637 101.78C111.95 101.454 112.324 101.2 112.757 101.02C113.194 100.84 113.674 100.75 114.197 100.75C114.717 100.75 115.175 100.835 115.572 101.005C115.972 101.172 116.319 101.395 116.612 101.675L116.227 102.22C116.2 102.257 116.169 102.289 116.132 102.315C116.095 102.342 116.045 102.355 115.982 102.355C115.915 102.355 115.839 102.325 115.752 102.265C115.669 102.202 115.56 102.134 115.427 102.06C115.297 101.984 115.132 101.915 114.932 101.855C114.735 101.792 114.489 101.76 114.192 101.76C113.849 101.76 113.534 101.82 113.247 101.94C112.96 102.06 112.714 102.235 112.507 102.465C112.3 102.695 112.139 102.975 112.022 103.305C111.909 103.635 111.852 104.01 111.852 104.43C111.852 104.854 111.912 105.232 112.032 105.565C112.152 105.895 112.317 106.175 112.527 106.405C112.737 106.632 112.984 106.805 113.267 106.925C113.55 107.045 113.855 107.105 114.182 107.105C114.382 107.105 114.56 107.095 114.717 107.075C114.877 107.052 115.024 107.017 115.157 106.97C115.29 106.92 115.415 106.859 115.532 106.785C115.652 106.712 115.77 106.622 115.887 106.515C115.954 106.455 116.02 106.425 116.087 106.425ZM131.223 107.085L131.218 108.03H126.728V100.83H131.218V101.775H127.903V103.945H130.553V104.86H127.903V107.085H131.223Z" fill="#E87121"/>
<line x1="43.9009" y1="86.2197" x2="117.184" y2="86.2197" stroke="#E87121"/>
<path d="M74.3755 62.3411H75.9085C76.4405 62.3411 76.8605 62.2781 77.1685 62.1521C77.4905 62.0121 77.7915 61.7811 78.0715 61.4591L88.0885 50.1191C88.3965 49.7691 88.6905 49.5241 88.9705 49.3841C89.2645 49.2301 89.6355 49.1531 90.0835 49.1531H93.5485L82.0825 62.1101C81.7885 62.4321 81.5085 62.7051 81.2425 62.9291C80.9905 63.1531 80.7175 63.3351 80.4235 63.4751C80.8155 63.6011 81.1585 63.7901 81.4525 64.0421C81.7465 64.2941 82.0545 64.6091 82.3765 64.9871L94.3465 79.2461H90.8185C90.5525 79.2461 90.3285 79.2251 90.1465 79.1831C89.9645 79.1411 89.8035 79.0851 89.6635 79.0151C89.5375 78.9451 89.4185 78.8541 89.3065 78.7421C89.1945 78.6301 89.0825 78.5111 88.9705 78.3851L78.5755 66.4361C78.4215 66.2681 78.2745 66.1281 78.1345 66.0161C78.0085 65.8901 77.8545 65.7851 77.6725 65.7011C77.5045 65.6171 77.3015 65.5611 77.0635 65.5331C76.8395 65.4911 76.5595 65.4701 76.2235 65.4701H74.3755V79.2461H70.3225V49.1531H74.3755V62.3411Z" fill="#E87121"/>
</svg>
